<svg width="60" height="72" viewBox="0 0 60 72" fill="none" xmlns="http://www.w3.org/2000/svg">
<g clip-path="url(#clip0_36_221)">
<path d="M58.4428 1.54928H1.54692V46.0187V46.8656C1.59452 49.8983 2.3823 52.8734 3.84153 55.5312C5.47493 58.5251 7.6726 61.1734 10.3128 63.3292C15.8532 67.9222 22.8182 70.4385 30.0103 70.4456H30.4228C34.0267 70.3872 37.5903 69.6769 40.9419 68.3489C44.3575 67.0163 47.513 65.0936 50.2647 62.6682C52.7153 60.5366 54.761 57.9787 56.3029 55.1181C57.6614 52.6559 58.4028 49.9001 58.4634 47.0877V46.9379V46.9017V46.0187L58.4428 1.54928ZM47.3668 38.6957C51.6672 36.9502 55.6531 34.0479 56.5658 26.7663C55.7202 30.3813 53.8587 32.3386 51.5229 33.4385C49.0272 34.616 45.99 34.7812 43.0767 34.8122C44.9215 35.5558 46.4422 36.9324 47.3668 38.6957ZM25.0034 7.89098H26.6019V8.2628H27.1176V9.50739C26.9477 9.57584 26.8029 9.695 26.703 9.8487C26.603 10.0024 26.5527 10.1832 26.5589 10.3665C26.5651 10.5498 26.6275 10.7267 26.7376 10.8733C26.8477 11.0199 27.0001 11.129 27.1743 11.1858H27.4527C27.6862 11.1914 27.9125 11.1045 28.0824 10.9439C28.2523 10.7834 28.3522 10.5623 28.3603 10.3285V10.251C28.3627 10.2322 28.3627 10.2131 28.3603 10.1942V10.1684V10.1219C28.3179 9.98737 28.2436 9.8651 28.1437 9.7656H28.1128H28.0818H28.0406V9.29565C28.0406 8.56233 28.6851 7.59662 29.4225 7.57596L30.7838 7.53981L28.6181 12.6576H23.0492L21.1052 7.5553H22.3994C23.1368 7.5553 23.7814 8.54167 23.7814 9.275V9.51255C23.5996 9.59407 23.4519 9.73652 23.3637 9.91537L23.3328 10.0238C23.3303 10.0513 23.3303 10.079 23.3328 10.1064C23.3328 10.1064 23.3328 10.1323 23.3328 10.1478C23.3321 10.2653 23.3547 10.3818 23.3993 10.4905C23.4439 10.5992 23.5095 10.6979 23.5925 10.781C23.6755 10.8641 23.7741 10.9299 23.8826 10.9746C23.9912 11.0192 24.1075 11.0419 24.2248 11.0412H24.4259H24.4569C24.6366 10.992 24.7965 10.8877 24.9141 10.7429C25.0317 10.5981 25.101 10.4201 25.1124 10.2338C25.1238 10.0475 25.0766 9.86235 24.9775 9.70427C24.8785 9.5462 24.7324 9.42317 24.56 9.35246V8.2628H25.0756L25.0034 7.89098ZM20.6824 16.7477C20.8696 16.997 21.0239 17.2695 21.1413 17.5585C23.7917 18.0336 28.7006 21.096 27.0608 16.7425L20.6824 16.7477ZM20.9608 17.734C19.1406 16.7012 18.3826 18.204 16.5727 18.5707C14.5926 18.9838 14.0667 17.4345 13.2262 16.0557C14.6184 16.35 14.7009 17.0059 16.5211 15.7613C17.8567 14.8421 19.548 15.4411 20.5328 16.5721L19.4345 13.6078C22.7191 13.582 26.4163 13.1482 29.6545 13.6078L30.0619 13.6749C31.7814 14.0035 33.3314 14.9256 34.4422 16.2805C35.553 17.6355 36.1542 19.3377 36.1413 21.0908C36.0971 22.5418 35.7257 23.9639 35.0551 25.2508C34.3845 26.5377 33.432 27.6561 32.2688 28.5222V28.8682C35.3627 28.1607 38.8639 25.5785 39.1784 24.1326C38.6304 23.9013 38.1141 23.601 37.6418 23.2391C37.0698 22.7837 36.6337 22.1798 36.3809 21.4931C36.1282 20.8065 36.0685 20.0636 36.2083 19.3453C36.2943 18.8275 36.4975 18.3364 36.8022 17.9094C37.107 17.4824 37.5053 17.131 37.9667 16.8819C38.5188 16.5808 39.1253 16.3929 39.7508 16.3294L55.9367 14.0416C56.0141 14.589 56.0657 15.1468 56.0914 15.7045C56.2059 18.063 55.8554 20.4209 55.0598 22.6436C54.2642 24.8664 53.0392 26.9104 51.4547 28.6589C49.8703 30.4074 47.9574 31.8262 45.8253 32.8341C43.6932 33.8421 41.3838 34.4195 39.0289 34.5334C35.6411 34.6935 31.2943 32.8188 29.7473 29.6118L29.505 29.648C28.9448 29.7084 28.3898 29.8102 27.8446 29.9527C27.329 32.1062 31.7326 33.7845 36.8374 34.6005L36.0175 35.7883C38.1265 35.1233 40.3947 35.1664 42.4769 35.911C44.5592 36.6556 46.3417 38.061 47.5533 39.9133C48.7649 41.7656 49.3393 43.9636 49.1891 46.1729C49.0389 48.3822 48.1723 50.4819 46.7212 52.1526C45.2701 53.8234 43.3139 54.9738 41.1501 55.4288C38.9862 55.8839 36.7332 55.6187 34.7336 54.6736C32.7341 53.7285 31.0975 52.1552 30.0727 50.193C29.0479 48.2309 28.691 45.9871 29.0564 43.8032L29.4019 43.8548L35.5792 44.2731C35.2016 44.8931 35.0387 45.6205 35.1158 46.3426C35.1929 47.0646 35.5057 47.7411 36.0056 48.2671C36.5056 48.793 37.1648 49.1392 37.8811 49.2518C38.5975 49.3644 39.3309 49.2372 39.9677 48.8899C40.6045 48.5427 41.1092 47.9947 41.4035 47.331C41.6977 46.6673 41.7652 45.9249 41.5954 45.2189C41.4256 44.5129 41.028 43.8827 40.4642 43.426C39.9004 42.9693 39.202 42.7116 38.4771 42.6929V42.6567L38.0749 42.7084H37.9512L32.6246 43.3436C30.6356 43.6987 28.6168 43.8596 26.5968 43.8238L19.2644 53.8425L18.3465 51.4101C13.1901 50.9712 14.9587 53.3726 16.1189 54.3589C16.1733 54.4465 16.2021 54.5476 16.2021 54.6507C16.2021 54.7538 16.1733 54.8549 16.1189 54.9425C15.1747 54.8886 14.2849 54.4822 13.6252 53.8033C12.9656 53.1245 12.584 52.2227 12.5559 51.2759C12.5543 50.4635 12.8202 49.6732 13.3125 49.0276C13.8048 48.3819 14.496 47.9168 15.2789 47.7045C16.0619 47.4921 16.8929 47.5443 17.6433 47.8529C18.3936 48.1615 19.0214 48.7094 19.4294 49.4116L22.7604 38.8971H22.2448L20.2286 41.7995C19.0246 40.5438 18.1048 39.0431 17.5318 37.3995L11.9062 30.4226C11.6622 30.9619 11.2926 31.4348 10.8285 31.8015L9.70952 28.8217C7.21898 28.6978 5.68752 29.2968 6.97147 31.1921H7.48711L7.41492 30.2574H8.96184L8.7659 33.5367V33.5935H7.70368V33.3766L7.62633 32.3437C6.18769 31.8376 4.85218 30.717 4.85218 28.9198C4.87919 28.2025 5.10468 27.5069 5.50349 26.9105C5.9023 26.3141 6.45873 25.8405 7.11069 25.5424L6.38879 15.9575L4.64077 13.7421H7.59539C7.51167 12.4608 7.85836 11.1882 8.58027 10.1271C8.18338 10.2073 7.81052 10.3787 7.49107 10.6279C7.17162 10.877 6.91431 11.197 6.73943 11.5628C6.3527 9.45575 8.12135 6.74968 10.5242 7.15249C12.9271 7.5553 12.7106 6.85813 13.9842 5.91307C13.9368 6.66882 13.8421 7.42084 13.7006 8.16468C16.1911 8.43839 16.0777 7.52432 17.6762 6.33137C17.3926 8.80505 17.6762 11.3045 14.6236 12.0121C11.8649 12.6627 9.79718 11.0412 7.92025 13.7576H11.8597L10.1169 15.9679L9.39498 25.3358C9.98107 25.4735 10.5235 25.7557 10.9728 26.1569L15.4692 28.8578L16.4489 32.5348H16.913C17.1389 29.5595 18.4578 26.7736 20.6148 24.7153C22.7719 22.6571 25.6141 21.4724 28.5923 21.3903L28.3603 20.7861H22.1416L20.9608 17.734ZM37.1726 61.2945L37.2293 60.7781L37.0179 61.2222L36.3785 62.0588L36.0691 62.2912L36.4661 62.2447H37.1983L37.1726 61.2945ZM38.5957 62.8799H37.9202V64.0832H37.1726V62.8799H35.3059V62.4203L37.2602 59.7297H37.9202V62.2396H38.5957V62.8799ZM31.5108 61.9142C31.4949 62.3101 31.5508 62.7055 31.6758 63.0813C31.7082 63.1968 31.7766 63.299 31.8711 63.3728C31.9655 63.4466 32.081 63.4883 32.2007 63.4918C32.3205 63.4952 32.4382 63.4603 32.5367 63.392C32.6352 63.3238 32.7094 63.2258 32.7484 63.1123C32.8832 62.728 32.941 62.3209 32.9185 61.9142C32.933 61.5239 32.8789 61.1341 32.7587 60.7626C32.7238 60.6436 32.651 60.5393 32.5513 60.4656C32.4517 60.392 32.3308 60.353 32.2069 60.3546C32.0919 60.3565 31.9804 60.3944 31.888 60.4629C31.7955 60.5315 31.7268 60.6272 31.6913 60.7368C31.5578 61.1144 31.4965 61.5139 31.5108 61.9142ZM30.7116 61.9142C30.6706 61.3254 30.8052 60.7376 31.0983 60.2255C31.2324 60.0538 31.4038 59.9149 31.5994 59.8194C31.7951 59.7238 32.0099 59.6742 32.2276 59.6742C32.4452 59.6742 32.6601 59.7238 32.8557 59.8194C33.0514 59.9149 33.2227 60.0538 33.3568 60.2255C33.6355 60.7443 33.7607 61.3319 33.7178 61.9194C33.7618 62.5124 33.6252 63.1048 33.3259 63.6184C33.2023 63.7992 33.0346 63.9453 32.8388 64.0429C32.6429 64.1405 32.4254 64.1864 32.2069 64.1762C31.9829 64.1901 31.7593 64.1432 31.5597 64.0405C31.36 63.9378 31.1917 63.7831 31.0725 63.5926C30.8009 63.0768 30.676 62.4962 30.7116 61.9142ZM26.9835 60.8297C26.9822 60.919 27.0017 61.0074 27.0402 61.0879C27.0778 61.1619 27.1285 61.2284 27.1898 61.2842C27.2576 61.3416 27.3301 61.3934 27.4063 61.4391L27.659 61.5682C27.7679 61.4878 27.8574 61.3838 27.9208 61.264C27.9841 61.1442 28.0198 61.0117 28.0251 60.8762C28.0283 60.8048 28.0166 60.7335 27.9909 60.6668C27.9652 60.6002 27.9259 60.5396 27.8756 60.4889C27.7758 60.3979 27.6443 60.3497 27.5095 60.3546C27.4372 60.3486 27.3645 60.3579 27.2961 60.3819C27.2277 60.406 27.1651 60.4442 27.1124 60.4941C27.0277 60.585 26.9814 60.7053 26.9835 60.8297ZM28.1024 62.9471C28.1015 62.8561 28.0766 62.7671 28.0303 62.6889C27.9812 62.6109 27.9183 62.5427 27.8446 62.4875C27.771 62.4203 27.6917 62.3598 27.6074 62.3067L27.3393 62.1569C27.1764 62.2365 27.039 62.3598 26.9422 62.5133C26.8744 62.6313 26.8372 62.7645 26.834 62.9006C26.8327 62.979 26.8472 63.0568 26.8764 63.1295C26.9056 63.2022 26.949 63.2684 27.0041 63.3241C27.0654 63.385 27.139 63.4322 27.2199 63.4625C27.3008 63.4927 27.3872 63.5054 27.4734 63.4996C27.634 63.509 27.7928 63.4615 27.922 63.3654C27.982 63.3141 28.0295 63.2498 28.0608 63.1772C28.092 63.1047 28.1063 63.026 28.1024 62.9471ZM26.1121 63.0297C26.111 62.8984 26.1301 62.7678 26.1688 62.6424C26.2074 62.5322 26.2612 62.4279 26.3286 62.3325C26.3954 62.2389 26.4753 62.1554 26.5658 62.0846C26.6601 62.0082 26.7601 61.9392 26.8649 61.8781C26.6802 61.7635 26.5191 61.6145 26.3905 61.4391C26.2729 61.2544 26.2136 61.0384 26.2203 60.8194C26.2195 60.6636 26.2493 60.5092 26.308 60.3649C26.3668 60.2271 26.4547 60.1038 26.5658 60.0035C26.6859 59.8959 26.8261 59.8134 26.9783 59.7607C27.1443 59.7035 27.3185 59.6738 27.494 59.6729C27.669 59.6694 27.8434 59.6955 28.0096 59.7504C28.1525 59.7928 28.2857 59.863 28.4015 59.957C28.5096 60.0466 28.596 60.1596 28.6542 60.2875C28.717 60.4215 28.7487 60.5681 28.747 60.7161C28.7528 60.9343 28.6955 61.1495 28.582 61.3358C28.4567 61.5229 28.2933 61.6813 28.1024 61.8006C28.3198 61.9173 28.5097 62.0793 28.6593 62.2757C28.7947 62.4706 28.8618 62.7048 28.8501 62.9419C28.8541 63.1195 28.8189 63.2959 28.747 63.4583C28.6818 63.6066 28.585 63.7388 28.4634 63.8457C28.3314 63.9579 28.1791 64.0438 28.0148 64.0987C27.8316 64.1583 27.6401 64.1879 27.4476 64.1865C27.2589 64.1866 27.0712 64.1588 26.8907 64.1039C26.7363 64.054 26.5928 63.9751 26.4679 63.8715C26.3502 63.7757 26.2566 63.6537 26.1946 63.5151C26.1332 63.361 26.1051 63.1955 26.1121 63.0297ZM21.6363 63.4067H22.4923V60.964L22.5851 60.5457L22.2912 60.9072L21.7446 61.2842L21.4043 60.8246L22.8068 59.6884H23.2606V63.4067H24.0959V64.0832H21.6569L21.6363 63.4067ZM0.778618 0H60V46.9947V47.0412V47.5576C59.8471 50.503 59.0216 53.3739 57.5868 55.9495C55.9653 58.9135 53.8339 61.5673 51.2908 63.7888C48.3978 66.3424 45.0824 68.3713 41.4936 69.7845C37.9655 71.1799 34.2155 71.9286 30.4228 71.9948H30C22.4458 71.9871 15.1304 69.3428 9.31248 64.517C6.59679 62.2892 4.32295 59.5704 2.60914 56.5021C1.07435 53.7626 0.192019 50.7051 0.0309385 47.5679H0V0H0.778618Z" fill="white"/>
</g>
<defs>
<clipPath id="clip0_36_221">
<rect width="60" height="72" fill="white"/>
</clipPath>
</defs>
</svg>
