<svg width="24" height="24" viewBox="0 0 24 24" fill="none" xmlns="http://www.w3.org/2000/svg">
<path opacity="0.2" d="M20.944 3.00839L7.49927 12.644L1.96802 11.5593C1.84415 11.5342 1.73178 11.4696 1.64776 11.3752C1.56374 11.2808 1.51261 11.1617 1.50205 11.0357C1.49148 10.9098 1.52205 10.7838 1.58916 10.6767C1.65628 10.5697 1.75632 10.4872 1.87427 10.4418L20.8708 3.00652C20.8825 3.00192 20.895 2.99971 20.9076 3.00003C20.9201 3.00035 20.9325 3.0032 20.944 3.00839ZM7.49927 18.75C7.49911 18.8995 7.54369 19.0457 7.62727 19.1698C7.71084 19.2938 7.8296 19.3901 7.96829 19.4461C8.10697 19.5021 8.25924 19.5154 8.40554 19.4843C8.55183 19.4531 8.68546 19.3789 8.78927 19.2712L11.659 16.2937L7.49927 12.644V18.75Z" fill="white"/>
<path d="M21.4571 2.45514C21.3409 2.3548 21.1995 2.28806 21.0482 2.26213C20.8969 2.23619 20.7414 2.25203 20.5984 2.30795L1.599 9.74327C1.32974 9.84797 1.10177 10.0373 0.949431 10.2828C0.797088 10.5283 0.728611 10.8166 0.754309 11.1043C0.780008 11.3921 0.898491 11.6637 1.09192 11.8783C1.28535 12.0929 1.54326 12.2389 1.82681 12.2942L6.74963 13.2608V18.7498C6.74866 19.0488 6.83751 19.3412 7.00467 19.5891C7.17182 19.837 7.40958 20.029 7.68713 20.1401C7.96424 20.2533 8.269 20.2805 8.56176 20.2181C8.85452 20.1557 9.12175 20.0067 9.32869 19.7905L11.7024 17.3286L15.4684 20.6248C15.7401 20.8658 16.0905 20.9992 16.4537 20.9998C16.6128 20.9997 16.771 20.9747 16.9224 20.9258C17.1699 20.8472 17.3925 20.7053 17.568 20.514C17.7435 20.3227 17.8658 20.0887 17.9228 19.8355L21.7281 3.28108C21.7621 3.13178 21.7549 2.97603 21.7071 2.83053C21.6594 2.68503 21.573 2.55527 21.4571 2.45514ZM7.32619 11.8451L2.67525 10.933L15.7253 5.82545L7.32619 11.8451ZM8.24963 18.7498V14.2986L10.5737 16.3367L8.24963 18.7498ZM16.4556 19.4998L8.70431 12.703L19.8606 4.70702L16.4556 19.4998Z" fill="white"/>
</svg>
