<svg width="24" height="24" viewBox="0 0 24 24" fill="none" xmlns="http://www.w3.org/2000/svg">
<path opacity="0.2" d="M12.0002 3C10.4196 2.9998 8.86683 3.41585 7.49811 4.2063C6.12939 4.99674 4.99298 6.1337 4.20318 7.50279C3.41339 8.87189 2.99808 10.4248 2.99903 12.0054C2.99997 13.586 3.41715 15.1384 4.20859 16.5066L3.03952 20.0119C2.99546 20.144 2.98906 20.2858 3.02106 20.4214C3.05305 20.557 3.12217 20.681 3.22067 20.7795C3.31918 20.878 3.44316 20.9471 3.57874 20.9791C3.71432 21.0111 3.85613 21.0047 3.98828 20.9606L7.49359 19.7916C8.68884 20.4826 10.0271 20.8894 11.4047 20.9804C12.7823 21.0715 14.1624 20.8443 15.4382 20.3166C16.714 19.7889 17.8513 18.9748 18.7621 17.9372C19.6729 16.8996 20.3327 15.6663 20.6906 14.3329C21.0485 12.9994 21.0948 11.6015 20.8259 10.2473C20.557 8.89314 19.9802 7.61895 19.1401 6.52336C18.2999 5.42777 17.219 4.54016 15.9809 3.92919C14.7428 3.31823 13.3808 3.0003 12.0002 3ZM14.2502 17.25C12.261 17.25 10.3534 16.4598 8.94685 15.0533C7.54033 13.6468 6.75015 11.7391 6.75015 9.75C6.75015 8.95435 7.06622 8.19129 7.62883 7.62868C8.19144 7.06607 8.9545 6.75 9.75015 6.75L11.2502 9.75L10.0952 11.4816C10.5534 12.5763 11.4239 13.4468 12.5186 13.905L14.2502 12.75L17.2502 14.25C17.2502 15.0456 16.9341 15.8087 16.3715 16.3713C15.8089 16.9339 15.0458 17.25 14.2502 17.25Z" fill="white"/>
<path d="M17.5858 13.5787L14.5858 12.0787C14.4677 12.0199 14.3362 11.9933 14.2045 12.0015C14.0728 12.0097 13.9456 12.0525 13.8358 12.1256L12.4586 13.0444C11.8264 12.6968 11.3062 12.1766 10.9586 11.5444L11.8774 10.1672C11.9505 10.0573 11.9933 9.93016 12.0015 9.79848C12.0097 9.6668 11.9831 9.53528 11.9242 9.41719L10.4242 6.41719C10.3621 6.29163 10.266 6.186 10.1468 6.11226C10.0277 6.03853 9.89028 5.99964 9.75017 6C8.75561 6 7.80179 6.39509 7.09852 7.09835C6.39526 7.80161 6.00018 8.75544 6.00017 9.75C6.00266 11.9373 6.87265 14.0343 8.41928 15.5809C9.96592 17.1275 12.0629 17.9975 14.2502 18C14.7426 18 15.2303 17.903 15.6852 17.7145C16.1402 17.5261 16.5536 17.2499 16.9018 16.9017C17.25 16.5534 17.5263 16.14 17.7147 15.6851C17.9032 15.2301 18.0002 14.7425 18.0002 14.25C18.0003 14.1107 17.9616 13.9741 17.8884 13.8555C17.8152 13.7369 17.7104 13.6411 17.5858 13.5787ZM14.2502 16.5C12.4606 16.498 10.7448 15.7862 9.4794 14.5208C8.21396 13.2553 7.50216 11.5396 7.50017 9.75C7.50003 9.2298 7.68014 8.72562 8.00986 8.32326C8.33958 7.9209 8.79853 7.64521 9.30861 7.54313L10.3849 9.69938L9.46892 11.0625C9.40048 11.1652 9.35842 11.2831 9.34649 11.406C9.33455 11.5288 9.3531 11.6526 9.40049 11.7666C9.9371 13.0419 10.9517 14.0565 12.227 14.5931C12.3413 14.6426 12.4661 14.6629 12.5902 14.6521C12.7143 14.6413 12.8337 14.5998 12.9377 14.5312L14.3083 13.6181L16.4646 14.6944C16.3616 15.2052 16.0846 15.6645 15.6808 15.9938C15.2769 16.3231 14.7713 16.502 14.2502 16.5ZM12.0002 2.25C10.3169 2.24963 8.66213 2.68508 7.19704 3.51396C5.73194 4.34285 4.50641 5.53692 3.63971 6.97997C2.77302 8.42301 2.29469 10.0659 2.25129 11.7486C2.20789 13.4314 2.60089 15.0967 3.39205 16.5825L2.32799 19.7747C2.23985 20.039 2.22706 20.3226 2.29105 20.5938C2.35504 20.8649 2.49328 21.1129 2.69029 21.3099C2.88729 21.5069 3.13526 21.6451 3.40642 21.7091C3.67757 21.7731 3.96119 21.7603 4.22549 21.6722L7.41768 20.6081C8.72527 21.3036 10.1741 21.6921 11.6543 21.744C13.1344 21.7959 14.6069 21.51 15.9601 20.9079C17.3132 20.3057 18.5114 19.4033 19.4636 18.269C20.4159 17.1346 21.0972 15.7983 21.4559 14.3613C21.8146 12.9244 21.8412 11.4246 21.5337 9.97578C21.2263 8.52701 20.5928 7.16732 19.6813 5.99992C18.7699 4.83253 17.6045 3.88811 16.2736 3.23836C14.9427 2.58861 13.4812 2.25061 12.0002 2.25ZM12.0002 20.25C10.5498 20.251 9.12495 19.8691 7.86955 19.1428C7.77763 19.0895 7.67544 19.0563 7.56974 19.0455C7.46404 19.0347 7.35724 19.0464 7.25643 19.08L3.75018 20.25L4.91924 16.7438C4.95294 16.643 4.96485 16.5362 4.95418 16.4305C4.94351 16.3248 4.91051 16.2226 4.85736 16.1306C3.94796 14.5584 3.58284 12.7299 3.81864 10.929C4.05444 9.12801 4.87798 7.4552 6.16151 6.17006C7.44503 4.88491 9.11679 4.05925 10.9175 3.82118C12.7181 3.5831 14.547 3.94591 16.1204 4.85333C17.6938 5.76074 18.9238 7.16204 19.6196 8.83983C20.3153 10.5176 20.4379 12.3781 19.9684 14.1327C19.4989 15.8873 18.4634 17.4379 17.0227 18.5439C15.582 19.65 13.8165 20.2497 12.0002 20.25Z" fill="white"/>
</svg>
