<svg width="22" height="51" viewBox="0 0 22 51" fill="none" xmlns="http://www.w3.org/2000/svg">
<path d="M0 27.6557V23.3164C6.38832 23.3164 9.58247 21.5526 9.58247 18.0252V8.70269C9.58247 3.34621 13.7217 0.611982 22 0.5V4.67133C20.6392 4.69 19.4957 4.79265 18.5696 4.97928C17.6435 5.14726 16.8969 5.41788 16.3299 5.79115C15.7629 6.14576 15.3565 6.59369 15.1108 7.13494C14.8651 7.67619 14.7423 8.32941 14.7423 9.09463V18.3891C14.7423 22.2525 12.5404 24.5668 8.1366 25.332V25.668C12.5404 26.4332 14.7423 28.7475 14.7423 32.6109V41.8774C14.7423 42.6426 14.8651 43.2958 15.1108 43.8371C15.3565 44.3783 15.7629 44.8262 16.3299 45.1809C16.8969 45.5541 17.6435 45.8247 18.5696 45.9927C19.4957 46.1794 20.6392 46.282 22 46.3007V50.5C13.7217 50.388 9.58247 47.6538 9.58247 42.2973V32.9468C9.58247 29.4194 6.38832 27.6557 0 27.6557Z" fill="url(#paint0_linear_36_117)"/>
<defs>
<linearGradient id="paint0_linear_36_117" x1="0" y1="0.5" x2="23.2444" y2="1.08535" gradientUnits="userSpaceOnUse">
<stop stop-color="#50E4DB"/>
<stop offset="1" stop-color="#00549F"/>
</linearGradient>
</defs>
</svg>
