<svg width="22" height="51" viewBox="0 0 22 51" fill="none" xmlns="http://www.w3.org/2000/svg">
<path d="M22 27.6557V23.3164C15.6117 23.3164 12.4175 21.5526 12.4175 18.0252V8.70269C12.4175 3.34621 8.27835 0.611982 0 0.5V4.67133C1.36082 4.69 2.5043 4.79265 3.43041 4.97928C4.35653 5.14726 5.10309 5.41788 5.6701 5.79115C6.23711 6.14576 6.64347 6.59369 6.88917 7.13494C7.13488 7.67619 7.25773 8.32941 7.25773 9.09463V18.3891C7.25773 22.2525 9.45962 24.5668 13.8634 25.332V25.668C9.45962 26.4332 7.25773 28.7475 7.25773 32.6109V41.8774C7.25773 42.6426 7.13488 43.2958 6.88917 43.8371C6.64347 44.3783 6.23711 44.8262 5.6701 45.1809C5.10309 45.5541 4.35653 45.8247 3.43041 45.9927C2.5043 46.1794 1.36082 46.282 0 46.3007V50.5C8.27835 50.388 12.4175 47.6538 12.4175 42.2973V32.9468C12.4175 29.4194 15.6117 27.6557 22 27.6557Z" fill="url(#paint0_linear_36_119)"/>
<defs>
<linearGradient id="paint0_linear_36_119" x1="22" y1="0.5" x2="-1.24439" y2="1.08535" gradientUnits="userSpaceOnUse">
<stop stop-color="#50E4DB"/>
<stop offset="1" stop-color="#00549F"/>
</linearGradient>
</defs>
</svg>
