<svg width="360" height="226" viewBox="0 0 360 226" fill="none" xmlns="http://www.w3.org/2000/svg">
<path fill-rule="evenodd" clip-rule="evenodd" d="M0 40C0 17.9086 17.9086 0 40 0H120C142.091 0 160 17.9086 160 40V40C160 62.0914 177.909 80 200 80H237C249.703 80 260 90.2975 260 103V103C260 115.703 270.297 126 283 126H320C342.091 126 360 143.909 360 166V186C360 208.091 342.091 226 320 226H40C17.9086 226 0 208.091 0 186V40Z" fill="url(#paint0_linear_100_85)"/>
<defs>
<linearGradient id="paint0_linear_100_85" x1="0" y1="0" x2="377.467" y2="34.4128" gradientUnits="userSpaceOnUse">
<stop stop-color="#50E4DB"/>
<stop offset="1" stop-color="#00549F"/>
</linearGradient>
</defs>
</svg>
