<svg width="350" height="206" viewBox="0 0 350 206" fill="none" xmlns="http://www.w3.org/2000/svg">
<mask id="path-1-inside-1_131_97" fill="white">
<path fill-rule="evenodd" clip-rule="evenodd" d="M0 24C0 10.7452 10.7452 0 24 0H136C149.255 0 160 10.7452 160 24V56C160 69.2548 170.745 80 184 80H237C249.703 80 260 90.2975 260 103V103C260 115.703 270.297 126 283 126H326C339.255 126 350 136.745 350 150V182C350 195.255 339.255 206 326 206H24C10.7452 206 0 195.255 0 182V24Z"/>
</mask>
<path fill-rule="evenodd" clip-rule="evenodd" d="M0 24C0 10.7452 10.7452 0 24 0H136C149.255 0 160 10.7452 160 24V56C160 69.2548 170.745 80 184 80H237C249.703 80 260 90.2975 260 103V103C260 115.703 270.297 126 283 126H326C339.255 126 350 136.745 350 150V182C350 195.255 339.255 206 326 206H24C10.7452 206 0 195.255 0 182V24Z" fill="url(#paint0_linear_131_97)"/>
<path d="M24 -4C8.53603 -4 -4 8.53603 -4 24H4C4 12.9543 12.9543 4 24 4V-4ZM136 -4H24V4H136V-4ZM164 56V24H156V56H164ZM237 76H184V84H237V76ZM326 122H283V130H326V122ZM354 182V150H346V182H354ZM326 210C341.464 210 354 197.464 354 182H346C346 193.046 337.046 202 326 202V210ZM24 210H326V202H24V210ZM-4 182C-4 197.464 8.53604 210 24 210V202C12.9543 202 4 193.046 4 182H-4ZM-4 24V182H4V24H-4ZM326 130C337.046 130 346 138.954 346 150H354C354 134.536 341.464 122 326 122V130ZM256 103C256 117.912 268.088 130 283 130V122C272.507 122 264 113.493 264 103H256ZM237 84C247.493 84 256 92.5066 256 103H264C264 88.0883 251.912 76 237 76V84ZM156 56C156 71.464 168.536 84 184 84V76C172.954 76 164 67.0457 164 56H156ZM136 4C147.046 4 156 12.9543 156 24H164C164 8.53603 151.464 -4 136 -4V4Z" fill="url(#paint1_linear_131_97)" mask="url(#path-1-inside-1_131_97)"/>
<defs>
<linearGradient id="paint0_linear_131_97" x1="0" y1="103" x2="350" y2="103" gradientUnits="userSpaceOnUse">
<stop stop-color="#4CDDD8"/>
<stop offset="1" stop-color="#00549F"/>
</linearGradient>
<linearGradient id="paint1_linear_131_97" x1="0" y1="0" x2="366.565" y2="35.6451" gradientUnits="userSpaceOnUse">
<stop stop-color="#50E4DB"/>
<stop offset="1" stop-color="#00549F"/>
</linearGradient>
</defs>
</svg>
