<svg width="360" height="226" viewBox="0 0 360 226" fill="none" xmlns="http://www.w3.org/2000/svg">
<mask id="path-1-inside-1_105_90" fill="white">
<path fill-rule="evenodd" clip-rule="evenodd" d="M0 40C0 17.9086 17.9086 0 40 0H120C142.091 0 160 17.9086 160 40V40C160 62.0914 177.909 80 200 80H237C249.703 80 260 90.2975 260 103V103C260 115.703 270.297 126 283 126H320C342.091 126 360 143.909 360 166V186C360 208.091 342.091 226 320 226H40C17.9086 226 0 208.091 0 186V40Z"/>
</mask>
<path d="M40 -4C15.6995 -4 -4 15.6995 -4 40H4C4 20.1178 20.1178 4 40 4V-4ZM120 -4H40V4H120V-4ZM237 76H200V84H237V76ZM320 122H283V130H320V122ZM364 186V166H356V186H364ZM320 230C344.301 230 364 210.301 364 186H356C356 205.882 339.882 222 320 222V230ZM40 230H320V222H40V230ZM-4 186C-4 210.301 15.6995 230 40 230V222C20.1177 222 4 205.882 4 186H-4ZM-4 40V186H4V40H-4ZM320 130C339.882 130 356 146.118 356 166H364C364 141.699 344.301 122 320 122V130ZM256 103C256 117.912 268.088 130 283 130V122C272.507 122 264 113.493 264 103H256ZM237 84C247.493 84 256 92.5066 256 103H264C264 88.0883 251.912 76 237 76V84ZM156 40C156 64.3005 175.699 84 200 84V76C180.118 76 164 59.8823 164 40H156ZM120 4C139.882 4 156 20.1177 156 40H164C164 15.6995 144.301 -4 120 -4V4Z" fill="url(#paint0_linear_105_90)" mask="url(#path-1-inside-1_105_90)"/>
<defs>
<linearGradient id="paint0_linear_105_90" x1="0" y1="0" x2="377.467" y2="34.4128" gradientUnits="userSpaceOnUse">
<stop stop-color="#50E4DB"/>
<stop offset="1" stop-color="#00549F"/>
</linearGradient>
</defs>
</svg>
