<svg width="360" height="226" viewBox="0 0 360 226" fill="none" xmlns="http://www.w3.org/2000/svg">
<mask id="path-1-inside-1_36_105" fill="white">
<path fill-rule="evenodd" clip-rule="evenodd" d="M0 186C0 208.091 17.9086 226 40 226H160C182.091 226 200 208.091 200 186C200 163.909 217.909 146 240 146H277C289.703 146 300 135.703 300 123C300 110.297 310.297 100 323 100H330C346.569 100 360 86.5685 360 70V40C360 17.9086 342.091 0 320 0H40C17.9086 0 0 17.9086 0 40V186Z"/>
</mask>
<path d="M40 230C15.6995 230 -4 210.301 -4 186H4C4 205.882 20.1178 222 40 222V230ZM160 230H40V222H160V230ZM277 150H240V142H277V150ZM330 104H323V96H330V104ZM364 40V70H356V40H364ZM320 -4C344.301 -4 364 15.6995 364 40H356C356 20.1178 339.882 4 320 4V-4ZM40 -4H320V4H40V-4ZM-4 40C-4 15.6995 15.6995 -4 40 -4V4C20.1177 4 4 20.1178 4 40H-4ZM-4 186V40H4V186H-4ZM330 96C344.359 96 356 84.3594 356 70H364C364 88.7777 348.778 104 330 104V96ZM296 123C296 108.088 308.088 96 323 96V104C312.507 104 304 112.507 304 123H296ZM277 142C287.493 142 296 133.493 296 123H304C304 137.912 291.912 150 277 150V142ZM196 186C196 161.699 215.699 142 240 142V150C220.118 150 204 166.118 204 186H196ZM160 222C179.882 222 196 205.882 196 186H204C204 210.301 184.301 230 160 230V222Z" fill="url(#paint0_linear_36_105)" mask="url(#path-1-inside-1_36_105)"/>
<defs>
<linearGradient id="paint0_linear_36_105" x1="0" y1="226" x2="377.467" y2="191.587" gradientUnits="userSpaceOnUse">
<stop stop-color="#50E4DB"/>
<stop offset="1" stop-color="#00549F"/>
</linearGradient>
</defs>
</svg>
