<svg width="350" height="206" viewBox="0 0 350 206" fill="none" xmlns="http://www.w3.org/2000/svg">
<mask id="path-1-inside-1_131_127" fill="white">
<path fill-rule="evenodd" clip-rule="evenodd" d="M0 182C0 195.255 10.7452 206 24 206H176C189.255 206 200 195.255 200 182V150C200 136.745 210.745 126 224 126H267C279.703 126 290 115.703 290 103V103C290 90.2975 300.297 80 313 80H326C339.255 80 350 69.2548 350 56V24C350 10.7452 339.255 0 326 0H24C10.7452 0 0 10.7452 0 24V182Z"/>
</mask>
<path d="M24 210C8.53603 210 -4 197.464 -4 182H4C4 193.046 12.9543 202 24 202V210ZM176 210H24V202H176V210ZM204 150V182H196V150H204ZM267 130H224V122H267V130ZM326 84H313V76H326V84ZM354 24V56H346V24H354ZM326 -4C341.464 -4 354 8.53602 354 24H346C346 12.9543 337.046 4 326 4V-4ZM24 -4H326V4H24V-4ZM-4 24C-4 8.53602 8.53604 -4 24 -4V4C12.9543 4 4 12.9543 4 24H-4ZM-4 182V24H4V182H-4ZM326 76C337.046 76 346 67.0457 346 56H354C354 71.464 341.464 84 326 84V76ZM286 103C286 88.0883 298.088 76 313 76V84C302.507 84 294 92.5066 294 103H286ZM267 122C277.493 122 286 113.493 286 103H294C294 117.912 281.912 130 267 130V122ZM196 150C196 134.536 208.536 122 224 122V130C212.954 130 204 138.954 204 150H196ZM176 202C187.046 202 196 193.046 196 182H204C204 197.464 191.464 210 176 210V202Z" fill="url(#paint0_linear_131_127)" mask="url(#path-1-inside-1_131_127)"/>
<defs>
<linearGradient id="paint0_linear_131_127" x1="0" y1="206" x2="366.565" y2="170.355" gradientUnits="userSpaceOnUse">
<stop stop-color="#50E4DB"/>
<stop offset="1" stop-color="#00549F"/>
</linearGradient>
</defs>
</svg>
