<svg width="350" height="206" viewBox="0 0 350 206" fill="none" xmlns="http://www.w3.org/2000/svg">
<mask id="path-1-inside-1_131_178" fill="white">
<path fill-rule="evenodd" clip-rule="evenodd" d="M350 24C350 10.7452 339.255 0 326 0H214C200.745 0 190 10.7452 190 24V33C190 46.2548 179.255 57 166 57H87.5C75.6259 57 66 66.6259 66 78.5V78.5C66 90.3741 56.3741 100 44.5 100H24C10.7452 100 0 110.745 0 124V182C0 195.255 10.7452 206 24 206H326C339.255 206 350 195.255 350 182V24Z"/>
</mask>
<path d="M326 -4C341.464 -4 354 8.53603 354 24H346C346 12.9543 337.046 4 326 4V-4ZM214 -4H326V4H214V-4ZM186 33V24H194V33H186ZM87.5 53H166V61H87.5V53ZM24 96H44.5V104H24V96ZM-4 182V124H4V182H-4ZM24 210C8.53604 210 -4 197.464 -4 182H4C4 193.046 12.9543 202 24 202V210ZM326 210H24V202H326V210ZM354 182C354 197.464 341.464 210 326 210V202C337.046 202 346 193.046 346 182H354ZM354 24V182H346V24H354ZM24 104C12.9543 104 4 112.954 4 124H-4C-4 108.536 8.53603 96 24 96V104ZM70 78.5C70 92.5833 58.5833 104 44.5 104V96C54.165 96 62 88.165 62 78.5H70ZM87.5 61C77.835 61 70 68.835 70 78.5H62C62 64.4167 73.4167 53 87.5 53V61ZM194 33C194 48.464 181.464 61 166 61V53C177.046 53 186 44.0457 186 33H194ZM214 4C202.954 4 194 12.9543 194 24H186C186 8.53603 198.536 -4 214 -4V4Z" fill="url(#paint0_linear_131_178)" mask="url(#path-1-inside-1_131_178)"/>
<defs>
<linearGradient id="paint0_linear_131_178" x1="350" y1="0" x2="-16.5654" y2="35.6451" gradientUnits="userSpaceOnUse">
<stop stop-color="#50E4DB"/>
<stop offset="1" stop-color="#00549F"/>
</linearGradient>
</defs>
</svg>
