<svg width="360" height="226" viewBox="0 0 360 226" fill="none" xmlns="http://www.w3.org/2000/svg">
<mask id="path-1-inside-1_36_101" fill="white">
<path fill-rule="evenodd" clip-rule="evenodd" d="M360 40C360 17.9086 342.091 0 320 0H228.5C212.76 0 200 12.7599 200 28.5C200 44.2401 187.24 57 171.5 57H97.5C85.6259 57 76 66.6259 76 78.5C76 90.3741 66.3741 100 54.5 100H38C17.0132 100 0 117.013 0 138V186C0 208.091 17.9086 226 40 226H320C342.091 226 360 208.091 360 186V40Z"/>
</mask>
<path d="M320 -4C344.301 -4 364 15.6995 364 40H356C356 20.1178 339.882 4 320 4V-4ZM228.5 -4H320V4H228.5V-4ZM97.5 53H171.5V61H97.5V53ZM38 96H54.5V104H38V96ZM-4 186V138H4V186H-4ZM40 230C15.6995 230 -4 210.301 -4 186H4C4 205.882 20.1177 222 40 222V230ZM320 230H40V222H320V230ZM364 186C364 210.301 344.301 230 320 230V222C339.882 222 356 205.882 356 186H364ZM364 40V186H356V40H364ZM38 104C19.2223 104 4 119.222 4 138H-4C-4 114.804 14.804 96 38 96V104ZM80 78.5C80 92.5833 68.5833 104 54.5 104V96C64.165 96 72 88.165 72 78.5H80ZM97.5 61C87.835 61 80 68.835 80 78.5H72C72 64.4167 83.4167 53 97.5 53V61ZM204 28.5C204 46.4493 189.449 61 171.5 61V53C185.031 53 196 42.031 196 28.5H204ZM228.5 4C214.969 4 204 14.969 204 28.5H196C196 10.5507 210.551 -4 228.5 -4V4Z" fill="url(#paint0_linear_36_101)" mask="url(#path-1-inside-1_36_101)"/>
<defs>
<linearGradient id="paint0_linear_36_101" x1="360" y1="0" x2="-17.4666" y2="34.4128" gradientUnits="userSpaceOnUse">
<stop stop-color="#50E4DB"/>
<stop offset="1" stop-color="#00549F"/>
</linearGradient>
</defs>
</svg>
