<svg width="350" height="411" viewBox="0 0 350 411" fill="none" xmlns="http://www.w3.org/2000/svg">
<mask id="path-1-inside-1_1014_629" fill="white">
<path fill-rule="evenodd" clip-rule="evenodd" d="M185 389.5C185 401.374 175.374 411 163.5 411H24C10.7452 411 0 400.255 0 387V24C0 10.7452 10.7452 0 24 0H326C339.255 0 350 10.7451 350 24V344C350 357.255 339.255 368 326 368H206.5C194.626 368 185 377.626 185 389.5Z"/>
</mask>
<path d="M24 407H163.5V415H24V407ZM4 387C4 398.046 12.9543 407 24 407V415C8.53603 415 -4 402.464 -4 387H4ZM4 24V387H-4V24H4ZM24 4C12.9543 4 4 12.9543 4 24H-4C-4 8.53604 8.53603 -4 24 -4V4ZM326 4H24V-4H326V4ZM346 24C346 12.9543 337.046 4 326 4V-4C341.464 -4 354 8.53601 354 24H346ZM346 344V24H354V344H346ZM326 372H206.5V364H326V372ZM206.5 372C196.835 372 189 379.835 189 389.5H181C181 375.417 192.417 364 206.5 364V372ZM354 344C354 359.464 341.464 372 326 372V364C337.046 364 346 355.046 346 344H354ZM163.5 407C173.165 407 181 399.165 181 389.5H189C189 403.583 177.583 415 163.5 415V407Z" fill="url(#paint0_linear_1014_629)" mask="url(#path-1-inside-1_1014_629)"/>
<defs>
<linearGradient id="paint0_linear_1014_629" x1="0" y1="411" x2="369.155" y2="393.008" gradientUnits="userSpaceOnUse">
<stop stop-color="#50E4DB"/>
<stop offset="1" stop-color="#00549F"/>
</linearGradient>
</defs>
</svg>
