<svg width="550" height="170" viewBox="0 0 550 170" fill="none" xmlns="http://www.w3.org/2000/svg">
<path d="M100 15H115V75H100V15Z" fill="white"/>
<path d="M395 15H410V75H395V15Z" fill="white"/>
<path d="M315 1.5299e-06H330V75H315V1.5299e-06Z" fill="white"/>
<path d="M0 15H15V60H0V15Z" fill="white"/>
<path d="M35 15H50C50 23.2843 43.2843 30 35 30V15Z" fill="white"/>
<path d="M345 60C345 51.7157 351.716 45 360 45V60H345Z" fill="white"/>
<path d="M35 45C43.2843 45 50 51.7157 50 60H35V45Z" fill="white"/>
<path d="M330 60H345C345 68.2843 338.284 75 330 75V60Z" fill="white"/>
<path d="M330 45H360C360 36.7157 353.284 30 345 30H330V45Z" fill="white"/>
<path d="M85 8.74227e-07C93.2843 1.23634e-06 100 6.71573 100 15L65 15V0L85 8.74227e-07Z" fill="white"/>
<path d="M380 8.74227e-07C388.284 1.23634e-06 395 6.71573 395 15L360 15V0L380 8.74227e-07Z" fill="white"/>
<path d="M130 8.74227e-07C121.716 1.23634e-06 115 6.71573 115 15L150 15V0L130 8.74227e-07Z" fill="white"/>
<path d="M425 8.74227e-07C416.716 1.23634e-06 410 6.71573 410 15L445 15V0L425 8.74227e-07Z" fill="white"/>
<path d="M35 75C43.2843 75 50 68.2843 50 60H0C-3.62117e-07 68.2843 6.71573 75 15 75H35Z" fill="white"/>
<path d="M35 2.18557e-06C43.2843 1.82345e-06 50 6.71573 50 15H0C-3.62117e-07 6.71573 6.71573 3.42191e-06 15 3.0598e-06L35 2.18557e-06Z" fill="white"/>
<path d="M240 1.5299e-06H255V30C246.716 30 240 23.2843 240 15V1.5299e-06Z" fill="white"/>
<path d="M240 75H255V45C246.716 45 240 51.7157 240 60V75Z" fill="white"/>
<path d="M285 1.5299e-06C293.284 1.5299e-06 300 6.71573 300 15V75H285V1.5299e-06Z" fill="white"/>
<path d="M255 45V30L285 30V45L255 45Z" fill="white"/>
<path d="M165 15C165 6.71573 171.716 1.5299e-06 180 1.5299e-06V30H165V15Z" fill="white"/>
<path d="M165 60C165 51.7157 171.716 45 180 45V75H165V60Z" fill="white"/>
<path d="M210 1.5299e-06C218.284 1.5299e-06 225 6.71573 225 15V30H210V1.5299e-06Z" fill="white"/>
<path d="M210 45C218.284 45 225 51.7157 225 60V75H210V45Z" fill="white"/>
<path d="M180 45V30H210V45H180Z" fill="white"/>
<path d="M174 15V7.5C174 3.35787 177.358 3.29047e-06 181.5 3.10941e-06L208.5 1.9292e-06C212.642 1.74815e-06 216 3.35787 216 7.5V15L174 15Z" fill="white"/>
<path d="M475 30H505V45H475V30Z" fill="white"/>
<path d="M460 60H510V75H460V60Z" fill="white"/>
<path d="M460 1.5299e-06H510V15H460V1.5299e-06Z" fill="white"/>
<path d="M460 15C460 23.2843 466.716 30 475 30V1.5299e-06H460V15Z" fill="white"/>
<path d="M460 60C460 51.7157 466.716 45 475 45V75H460V60Z" fill="white"/>
<path d="M140 95H155V110C155 118.284 148.284 125 140 125V95Z" fill="white"/>
<path d="M140 170H155L155 155C155 146.716 148.284 140 140 140L140 170Z" fill="white"/>
<path d="M115 125L100 125L100 95C108.284 95 115 101.716 115 110L115 125Z" fill="white"/>
<path d="M140 140L140 125L100 125C100 133.284 106.716 140 115 140H140Z" fill="white"/>
<path d="M470 95H485V125C476.716 125 470 118.284 470 110V95Z" fill="white"/>
<path d="M470 155C470 146.716 476.716 140 485 140V170H470V155Z" fill="white"/>
<path d="M485 140V125H500V140H485Z" fill="white"/>
<path d="M410 95H425V170H410V95Z" fill="white"/>
<path d="M440 155C440 146.716 446.716 140 455 140V155H440Z" fill="white"/>
<path d="M425 155H440C440 163.284 433.284 170 425 170V155Z" fill="white"/>
<path d="M425 140H455C455 131.716 448.284 125 440 125H425V140Z" fill="white"/>
<path d="M345 110H360V170H345V110Z" fill="white"/>
<path d="M330 95C338.284 95 345 101.716 345 110L310 110V95L330 95Z" fill="white"/>
<path d="M375 95C366.716 95 360 101.716 360 110L395 110V95L375 95Z" fill="white"/>
<path d="M245 110H260V155H245V110Z" fill="white"/>
<path d="M280 110H295C295 118.284 288.284 125 280 125V110Z" fill="white"/>
<path d="M280 140C288.284 140 295 146.716 295 155H280V140Z" fill="white"/>
<path d="M280 170C288.284 170 295 163.284 295 155H245C245 163.284 251.716 170 260 170H280Z" fill="white"/>
<path d="M280 95C288.284 95 295 101.716 295 110H245C245 101.716 251.716 95 260 95L280 95Z" fill="white"/>
<path d="M170 110C170 101.716 176.716 95 185 95V125H170V110Z" fill="white"/>
<path d="M170 155C170 146.716 176.716 140 185 140V170H170V155Z" fill="white"/>
<path d="M215 95C223.284 95 230 101.716 230 110V125H215V95Z" fill="white"/>
<path d="M215 140C223.284 140 230 146.716 230 155V170H215V140Z" fill="white"/>
<path d="M185 140V125H215V140H185Z" fill="white"/>
<path d="M179 110V102.5C179 98.3579 182.358 95 186.5 95L213.5 95C217.642 95 221 98.3579 221 102.5V110L179 110Z" fill="white"/>
<path d="M500 110H515V155H500V110Z" fill="white"/>
<path d="M535 110H550V155H535V110Z" fill="white"/>
<path d="M535 170C543.284 170 550 163.284 550 155H500C500 163.284 506.716 170 515 170H535Z" fill="white"/>
<path d="M535 95C543.284 95 550 101.716 550 110H500C500 101.716 506.716 95 515 95L535 95Z" fill="white"/>
<path d="M470 95H485V125C476.716 125 470 118.284 470 110V95Z" fill="white"/>
<path d="M470 155C470 146.716 476.716 140 485 140V170H470V155Z" fill="white"/>
<path d="M485 140V125H500V140H485Z" fill="white"/>
<path d="M410 95H425V170H410V95Z" fill="white"/>
<path d="M440 155C440 146.716 446.716 140 455 140V155H440Z" fill="white"/>
<path d="M425 155H440C440 163.284 433.284 170 425 170V155Z" fill="white"/>
<path d="M425 140H455C455 131.716 448.284 125 440 125H425V140Z" fill="white"/>
<path d="M500 110H515V155H500V110Z" fill="white"/>
<path d="M535 110H550V155H535V110Z" fill="white"/>
<path d="M535 170C543.284 170 550 163.284 550 155H500C500 163.284 506.716 170 515 170H535Z" fill="white"/>
<path d="M535 95C543.284 95 550 101.716 550 110H500C500 101.716 506.716 95 515 95L535 95Z" fill="white"/>
</svg>
