<svg width="40" height="40" viewBox="0 0 40 40" fill="none" xmlns="http://www.w3.org/2000/svg">
<rect width="40" height="40" rx="8" fill="#00549F"/>
<path d="M28.9857 11.5146C28.9857 11.2385 28.7618 11.0146 28.4857 11.0146L23.9857 11.0146C23.7095 11.0146 23.4857 11.2385 23.4857 11.5146C23.4857 11.7908 23.7095 12.0146 23.9857 12.0146L27.9857 12.0146L27.9857 16.0146C27.9857 16.2908 28.2095 16.5146 28.4857 16.5146C28.7618 16.5146 28.9857 16.2908 28.9857 16.0146L28.9857 11.5146ZM16.8184 22.4748C16.6232 22.6701 16.6232 22.9866 16.8184 23.1819C17.0137 23.3772 17.3303 23.3772 17.5255 23.1819L16.8184 22.4748ZM28.1321 11.1611L16.8184 22.4748L17.5255 23.1819L28.8392 11.8682L28.1321 11.1611Z" fill="white"/>
<path d="M17.4544 27.6368C18.8603 26.2309 18.8603 23.9515 17.4544 22.5456C16.0485 21.1397 13.7691 21.1397 12.3632 22.5456C10.9574 23.9515 10.9574 26.2309 12.3632 27.6368C13.7691 29.0427 16.0485 29.0427 17.4544 27.6368Z" fill="#00549F" stroke="white" stroke-width="1.5"/>
<path d="M18.3029 28.4853C20.1775 26.6108 20.1775 23.5716 18.3029 21.6971C16.4284 19.8226 13.3892 19.8226 11.5147 21.6971C9.6402 23.5716 9.6402 26.6108 11.5147 28.4853C13.3892 30.3598 16.4284 30.3598 18.3029 28.4853Z" stroke="white"/>
</svg>
