<svg width="40" height="40" viewBox="0 0 40 40" fill="none" xmlns="http://www.w3.org/2000/svg">
<rect width="40" height="40" rx="8" transform="matrix(-1 0 0 1 40 0)" fill="#00549F"/>
<path d="M7.64645 20.1535C7.45118 19.9583 7.45118 19.6417 7.64645 19.4464L10.8284 16.2645C11.0237 16.0692 11.3403 16.0692 11.5355 16.2645C11.7308 16.4597 11.7308 16.7763 11.5355 16.9716L8.70711 19.8L11.5355 22.6284C11.7308 22.8237 11.7308 23.1403 11.5355 23.3355C11.3403 23.5308 11.0237 23.5308 10.8284 23.3355L7.64645 20.1535ZM24 19.3C24.2761 19.3 24.5 19.5238 24.5 19.8C24.5 20.0761 24.2761 20.3 24 20.3L24 19.3ZM8 19.3L24 19.3L24 20.3L8 20.3L8 19.3Z" fill="white"/>
<path d="M27.2 23.4C25.2118 23.4 23.6 21.7882 23.6 19.8C23.6 17.8118 25.2118 16.2 27.2 16.2C29.1882 16.2 30.8 17.8118 30.8 19.8C30.8 21.7882 29.1882 23.4 27.2 23.4Z" fill="#7AA4C9" stroke="white" stroke-width="1.5"/>
<path d="M27.2 24.6C24.549 24.6 22.4 22.451 22.4 19.8C22.4 17.149 24.549 15 27.2 15C29.851 15 32 17.149 32 19.8C32 22.451 29.851 24.6 27.2 24.6Z" stroke="white"/>
</svg>
