<svg width="40" height="40" viewBox="0 0 40 40" fill="none" xmlns="http://www.w3.org/2000/svg">
<rect width="40" height="40" rx="8" fill="#00549F"/>
<path d="M32.3536 20.1535C32.5488 19.9583 32.5488 19.6417 32.3536 19.4464L29.1716 16.2645C28.9763 16.0692 28.6597 16.0692 28.4645 16.2645C28.2692 16.4597 28.2692 16.7763 28.4645 16.9716L31.2929 19.8L28.4645 22.6284C28.2692 22.8237 28.2692 23.1403 28.4645 23.3355C28.6597 23.5308 28.9763 23.5308 29.1716 23.3355L32.3536 20.1535ZM16 19.3C15.7239 19.3 15.5 19.5238 15.5 19.8C15.5 20.0761 15.7239 20.3 16 20.3L16 19.3ZM32 19.3L16 19.3L16 20.3L32 20.3L32 19.3Z" fill="white"/>
<path d="M12.8 23.4C14.7882 23.4 16.4 21.7882 16.4 19.8C16.4 17.8118 14.7882 16.2 12.8 16.2C10.8118 16.2 9.20001 17.8118 9.20001 19.8C9.20001 21.7882 10.8118 23.4 12.8 23.4Z" fill="#7AA4C9" stroke="white" stroke-width="1.5"/>
<path d="M12.8 24.6C15.451 24.6 17.6 22.451 17.6 19.8C17.6 17.149 15.451 15 12.8 15C10.149 15 8 17.149 8 19.8C8 22.451 10.149 24.6 12.8 24.6Z" stroke="white"/>
</svg>
