<svg width="80" height="90" viewBox="0 0 80 90" fill="none" xmlns="http://www.w3.org/2000/svg">
<g clip-path="url(#clip0_110_25)">
<path fill-rule="evenodd" clip-rule="evenodd" d="M18 34.5C18 51.3436 31.6564 65 48.5 65C65.3436 65 79 51.3436 79 34.5C79 17.6564 65.3436 4 48.5 4C31.6564 4 18 17.6564 18 34.5Z" stroke="#7AA4C9" stroke-linecap="round" stroke-linejoin="round"/>
<path d="M29 58L5.52302 84.5" stroke="#7AA4C9" stroke-linecap="round" stroke-linejoin="round"/>
<path d="M67 57.9959C63.6046 56.4102 59.9135 54.8287 56.4505 53.4708V45.1906C56.4505 45.1906 60.6737 43.7457 60.6737 34.8404C63.6088 34.8404 64.8969 26.5603 60.8088 26.5603C60.8088 25.6867 64.0438 21.1492 62.7853 16.2101C60.6737 7.92996 39.5579 7.92996 37.4463 16.2101C28.5523 14.434 35.3347 25.3679 35.3347 26.5603C31.1116 26.5603 32.3996 34.8404 35.3347 34.8404C35.3347 43.7457 39.5579 45.1906 39.5579 45.1906V53.4708C36.0907 54.8287 32.3996 56.4144 29 58" stroke="#7AA4C9" stroke-linecap="round" stroke-linejoin="round"/>
<path d="M31.25 58C31.25 56.7574 30.2426 55.75 29 55.75C27.7574 55.75 26.75 56.7574 26.75 58C26.75 59.2426 27.7574 60.25 29 60.25C30.2426 60.25 31.25 59.2426 31.25 58Z" fill="#7AA4C9" stroke="white" stroke-width="1.5"/>
<path d="M32 58C32 56.3431 30.6569 55 29 55C27.3431 55 26 56.3431 26 58C26 59.6569 27.3431 61 29 61C30.6569 61 32 59.6569 32 58Z" stroke="white"/>
<path d="M6.25 86C6.25 84.7574 5.24264 83.75 4 83.75C2.75736 83.75 1.75 84.7574 1.75 86C1.75 87.2426 2.75736 88.25 4 88.25C5.24264 88.25 6.25 87.2426 6.25 86Z" fill="#7AA4C9" stroke="white" stroke-width="1.5"/>
<path d="M7 86C7 84.3431 5.65685 83 4 83C2.34315 83 1 84.3431 1 86C1 87.6569 2.34315 89 4 89C5.65685 89 7 87.6569 7 86Z" stroke="white"/>
<path d="M69.25 58C69.25 56.7574 68.2426 55.75 67 55.75C65.7574 55.75 64.75 56.7574 64.75 58C64.75 59.2426 65.7574 60.25 67 60.25C68.2426 60.25 69.25 59.2426 69.25 58Z" fill="#7AA4C9" stroke="white" stroke-width="1.5"/>
<path d="M70 58C70 56.3431 68.6569 55 67 55C65.3431 55 64 56.3431 64 58C64 59.6569 65.3431 61 67 61C68.6569 61 70 59.6569 70 58Z" stroke="white"/>
<path d="M51.25 4C51.25 2.75736 50.2426 1.75 49 1.75C47.7574 1.75 46.75 2.75736 46.75 4C46.75 5.24264 47.7574 6.25 49 6.25C50.2426 6.25 51.25 5.24264 51.25 4Z" fill="#7AA4C9" stroke="white" stroke-width="1.5"/>
<path d="M52 4C52 2.34315 50.6569 1 49 1C47.3431 1 46 2.34315 46 4C46 5.65685 47.3431 7 49 7C50.6569 7 52 5.65685 52 4Z" stroke="white"/>
</g>
<defs>
<clipPath id="clip0_110_25">
<rect width="80" height="90" fill="white"/>
</clipPath>
</defs>
</svg>
