<svg width="428" height="90" viewBox="0 0 428 90" fill="none" xmlns="http://www.w3.org/2000/svg">
<path d="M263 15.0002H278V75.0002H263V15.0002Z" fill="white"/>
<path d="M0 0.000201762H15V75.0002H0V0.000201762Z" fill="white"/>
<path d="M58 0.000201762H73V75.0002H58V0.000201762Z" fill="white"/>
<path d="M163 15.0002H178V60.0002H163V15.0002Z" fill="white"/>
<path d="M328 15.0002H343V60.0002H328V15.0002Z" fill="white"/>
<path d="M29 35.0002H44V50.0002H29V35.0002Z" fill="white"/>
<path d="M198 15.0002H213C213 23.2845 206.284 30.0002 198 30.0002V15.0002Z" fill="white"/>
<path d="M363 15.0002H378V60.0002H363V15.0002Z" fill="white"/>
<path d="M198 45.0002C206.284 45.0002 213 51.7159 213 60.0002H198V45.0002Z" fill="white"/>
<path d="M108 30.0002H138V45.0002H108V30.0002Z" fill="white"/>
<path d="M93 60.0002H143V75.0002H93V60.0002Z" fill="white"/>
<path d="M93 0.000201762H143V15.0002H93V0.000201762Z" fill="white"/>
<path d="M248 0.000201106C256.284 0.000201468 263 6.71593 263 15.0002L228 15.0002V0.000200232L248 0.000201106Z" fill="white"/>
<path d="M293 0.000201106C284.716 0.000201468 278 6.71593 278 15.0002L313 15.0002V0.000200232L293 0.000201106Z" fill="white"/>
<path d="M93 15.0002C93 23.2845 99.7157 30.0002 108 30.0002V0.000201762H93V15.0002Z" fill="white"/>
<path d="M28.7489 14.1421C34.6067 20 34.6067 29.4975 28.7489 35.3553L4.00013 10.6066L14.6067 0L28.7489 14.1421Z" fill="white"/>
<path d="M43.6066 14.1421C37.7487 20 37.7487 29.4975 43.6066 35.3553L68.3553 10.6066L57.7487 0L43.6066 14.1421Z" fill="white"/>
<path d="M93 60.0002C93 51.7159 99.7157 45.0002 108 45.0002V75.0002H93V60.0002Z" fill="white"/>
<path d="M198 75.0002C206.284 75.0002 213 68.2845 213 60.0002H163C163 68.2845 169.716 75.0002 178 75.0002H198Z" fill="white"/>
<path d="M363 75.0002C371.284 75.0002 378 68.2845 378 60.0002H328C328 68.2845 334.716 75.0002 343 75.0002H363Z" fill="white"/>
<path d="M198 0.000202417C206.284 0.000202055 213 6.71593 213 15.0002H163C163 6.71593 169.716 0.000203654 178 0.000203292L198 0.000202417Z" fill="white"/>
<path d="M363 0.000202417C371.284 0.000202055 378 6.71593 378 15.0002H328C328 6.71593 334.716 0.000203654 343 0.000203292L363 0.000202417Z" fill="white"/>
<path d="M413 90V75C421.284 75 428 81.7157 428 90H413Z" fill="white"/>
<path d="M398 75V60H413V75H398Z" fill="white"/>
</svg>
