<svg width="350" height="660" viewBox="0 0 350 660" fill="none" xmlns="http://www.w3.org/2000/svg">
<mask id="path-1-inside-1_1011_355" fill="white">
<path fill-rule="evenodd" clip-rule="evenodd" d="M0 24C0 10.7452 10.7452 0 24 0H99C112.255 0 123 10.7452 123 24V36C123 49.2548 133.745 60 147 60H326C339.255 60 350 70.7452 350 84V636C350 649.255 339.255 660 326 660H251C237.745 660 227 649.255 227 636V624C227 610.745 216.255 600 203 600H24C10.7452 600 0 589.255 0 576V24Z"/>
</mask>
<path d="M24 -4C8.53602 -4 -4 8.53605 -4 24H4C4 12.9543 12.9543 4 24 4V-4ZM99 -4H24V4H99V-4ZM127 36V24H119V36H127ZM326 56H147V64H326V56ZM354 636V84H346V636H354ZM326 664C341.464 664 354 651.464 354 636H346C346 647.046 337.046 656 326 656V664ZM251 664H326V656H251V664ZM223 624V636H231V624H223ZM24 604H203V596H24V604ZM-4 24V576H4V24H-4ZM24 596C12.9543 596 4 587.046 4 576H-4C-4 591.464 8.53603 604 24 604V596ZM326 64C337.046 64 346 72.9543 346 84H354C354 68.536 341.464 56 326 56V64ZM231 624C231 608.536 218.464 596 203 596V604C214.046 604 223 612.954 223 624H231ZM119 36C119 51.464 131.536 64 147 64V56C135.954 56 127 47.0457 127 36H119ZM251 656C239.954 656 231 647.046 231 636H223C223 651.464 235.536 664 251 664V656ZM99 4C110.046 4 119 12.9543 119 24H127C127 8.53603 114.464 -4 99 -4V4Z" fill="url(#paint0_linear_1011_355)" mask="url(#path-1-inside-1_1011_355)"/>
<defs>
<linearGradient id="paint0_linear_1011_355" x1="0" y1="0" x2="369.691" y2="11.2205" gradientUnits="userSpaceOnUse">
<stop stop-color="#50E4DB"/>
<stop offset="1" stop-color="#00549F"/>
</linearGradient>
</defs>
</svg>
