<svg width="28" height="34" viewBox="0 0 28 34" fill="none" xmlns="http://www.w3.org/2000/svg">
<path opacity="0.2" d="M25.6609 18.0453L3.14844 31.8141C2.96056 31.9281 2.74594 31.9906 2.5262 31.9953C2.30647 31.9999 2.08939 31.9465 1.89687 31.8405C1.70434 31.7345 1.54317 31.5796 1.4296 31.3914C1.31603 31.2033 1.25408 30.9885 1.25 30.7688V3.23125C1.25408 3.01151 1.31603 2.79672 1.4296 2.60856C1.54317 2.42039 1.70434 2.26549 1.89687 2.15948C2.08939 2.05347 2.30647 2.0001 2.5262 2.00475C2.74594 2.00939 2.96056 2.07189 3.14844 2.18594L25.6609 15.9547C25.8408 16.0635 25.9895 16.2169 26.0927 16.4C26.1959 16.5832 26.2501 16.7898 26.2501 17C26.2501 17.2102 26.1959 17.4168 26.0927 17.6C25.9895 17.7831 25.8408 17.9365 25.6609 18.0453Z" fill="#00549F"/>
<path d="M26.3125 14.8891L3.8 1.11719C3.42045 0.884772 2.98573 0.757891 2.54075 0.74965C2.09576 0.74141 1.65665 0.852109 1.26875 1.07031C0.884547 1.28513 0.564494 1.59841 0.341506 1.97793C0.118518 2.35744 0.000641965 2.78951 0 3.22969V30.7703C0.00289495 31.4306 0.267865 32.0627 0.736662 32.5277C1.20546 32.9927 1.83971 33.2525 2.5 33.25C2.96086 33.2498 3.41278 33.1228 3.80625 32.8828L26.3125 19.1109C26.6743 18.8904 26.9732 18.5806 27.1807 18.2112C27.3882 17.8418 27.4971 17.4252 27.4971 17.0016C27.4971 16.5779 27.3882 16.1613 27.1807 15.7919C26.9732 15.4225 26.6743 15.1127 26.3125 14.8922V14.8891ZM2.5 30.7406V3.25L24.9734 17L2.5 30.7406Z" fill="#00549F"/>
</svg>
