<svg width="70" height="89" viewBox="0 0 70 89" fill="none" xmlns="http://www.w3.org/2000/svg">
<path fill-rule="evenodd" clip-rule="evenodd" d="M5.82222 37.7892C1.69373 49.4438 0.216158 56.2142 1.38951 58.1005C2.56287 59.9868 5.03616 60.5161 8.80938 59.6885V67.3773C8.86689 72.8969 11.7059 75.6567 17.3264 75.6567C25.7571 75.6567 25.2307 75.7448 26.3058 75.7576C29.9351 75.8005 31.8642 77.3565 32.8803 82.1858C33.1133 83.2931 34.0024 84.1997 35.5476 84.9056L64.3078 84.9019L60.4992 61.8084C59.7767 57.2886 60.6051 53.5738 62.9845 50.6639C66.5536 46.299 72.3224 32.6656 66.5536 18.847C60.7848 5.02843 42.5511 -4.91881 24.0116 5.02843C11.652 11.6599 5.58882 22.5802 5.82222 37.7892Z" stroke="#7AA4C9" stroke-linecap="round" stroke-linejoin="round"/>
<path fill-rule="evenodd" clip-rule="evenodd" d="M38.4401 17.3821L46.3217 11.1673L47.3605 20.2308L57.6409 20.135L51.1928 27.4259L58.2904 34.914L47.3605 35.3682L45.4516 44.9779L38.0586 38.5019L29.1669 44.1235L29.7094 35.3682H19.1335L26.0772 28.0726L20.0804 18.6348L29.7094 20.135L31.3284 11.1673L38.4401 17.3821Z" stroke="#7AA4C9" stroke-linecap="round" stroke-linejoin="round"/>
<path d="M66.25 85C66.25 83.7574 65.2426 82.75 64 82.75C62.7574 82.75 61.75 83.7574 61.75 85C61.75 86.2426 62.7574 87.25 64 87.25C65.2426 87.25 66.25 86.2426 66.25 85Z" fill="#7AA4C9" stroke="white" stroke-width="1.5"/>
<path d="M67 85C67 83.3431 65.6569 82 64 82C62.3431 82 61 83.3431 61 85C61 86.6569 62.3431 88 64 88C65.6569 88 67 86.6569 67 85Z" stroke="white"/>
<path d="M64.25 12C64.25 10.7574 63.2426 9.75 62 9.75C60.7574 9.75 59.75 10.7574 59.75 12C59.75 13.2426 60.7574 14.25 62 14.25C63.2426 14.25 64.25 13.2426 64.25 12Z" fill="#7AA4C9" stroke="white" stroke-width="1.5"/>
<path d="M65 12C65 10.3431 63.6569 9 62 9C60.3431 9 59 10.3431 59 12C59 13.6569 60.3431 15 62 15C63.6569 15 65 13.6569 65 12Z" stroke="white"/>
<path d="M11.25 21C11.25 19.7574 10.2426 18.75 9 18.75C7.75736 18.75 6.75 19.7574 6.75 21C6.75 22.2426 7.75736 23.25 9 23.25C10.2426 23.25 11.25 22.2426 11.25 21Z" fill="#7AA4C9" stroke="white" stroke-width="1.5"/>
<path d="M12 21C12 19.3431 10.6569 18 9 18C7.34315 18 6 19.3431 6 21C6 22.6569 7.34315 24 9 24C10.6569 24 12 22.6569 12 21Z" stroke="white"/>
<path d="M16.25 75C16.25 73.7574 15.2426 72.75 14 72.75C12.7574 72.75 11.75 73.7574 11.75 75C11.75 76.2426 12.7574 77.25 14 77.25C15.2426 77.25 16.25 76.2426 16.25 75Z" fill="#7AA4C9" stroke="white" stroke-width="1.5"/>
<path d="M17 75C17 73.3431 15.6569 72 14 72C12.3431 72 11 73.3431 11 75C11 76.6569 12.3431 78 14 78C15.6569 78 17 76.6569 17 75Z" stroke="white"/>
</svg>
