<svg width="91" height="90" viewBox="0 0 91 90" fill="none" xmlns="http://www.w3.org/2000/svg">
<g clip-path="url(#clip0_36_164)">
<path d="M21 50.3143C21 31.431 21 8.82016 21 6.82947C21 3.44271 23.863 1 26.7583 1C29.6536 1 48.9514 1 51.7907 1C54.6301 1 57.6842 3.607 57.6842 6.82947C57.6842 7.92257 57.6842 15.911 57.6842 26.1229M57.6842 61.9701C57.6842 69.8338 57.6842 75.6178 57.6842 76.5771C57.6842 79.9537 54.3844 81.5263 52.3027 81.5263C50.221 81.5263 29.0742 81.5263 26.4076 81.5263C23.7411 81.5263 21 79.0027 21 76.1447C21 75.5857 21 72.7227 21 68.4532" stroke="#7AA4C9" stroke-linecap="round" stroke-linejoin="round"/>
<path d="M21 11.7368C21 9.65757 22.9683 8.1579 25.8636 8.1579C28.7589 8.1579 49.8461 8.1579 52.6855 8.1579C55.5248 8.1579 57.6842 9.75844 57.6842 11.7368" stroke="#7AA4C9" stroke-linecap="round" stroke-linejoin="round"/>
<path d="M36.6575 3.25H42.9207C43.6619 3.25 44.2628 3.85088 44.2628 4.59211V4.59211C44.2628 5.33333 43.6619 5.93421 42.9207 5.93421H36.6575C35.9163 5.93421 35.3154 5.33333 35.3154 4.59211V4.59211C35.3154 3.85088 35.9163 3.25 36.6575 3.25Z" stroke="#7AA4C9" stroke-linecap="round" stroke-linejoin="round"/>
<path d="M57.6838 61.8422C67.5668 61.8422 75.5785 53.8305 75.5785 43.9475C75.5785 34.0645 67.5668 26.0527 57.6838 26.0527C47.8008 26.0527 39.7891 34.0645 39.7891 43.9475C39.7891 53.8305 47.8008 61.8422 57.6838 61.8422Z" stroke="#7AA4C9" stroke-linecap="round" stroke-linejoin="round"/>
<path d="M57.6838 55.8685C64.2676 55.8685 69.6048 50.5312 69.6048 43.9474C69.6048 37.3636 64.2676 32.0264 57.6838 32.0264C51.0999 32.0264 45.7627 37.3636 45.7627 43.9474C45.7627 50.5312 51.0999 55.8685 57.6838 55.8685Z" stroke="#7AA4C9" stroke-linecap="round" stroke-linejoin="round"/>
<path d="M10.2627 56.501C18.3015 51.802 23.0652 49.0277 24.5537 48.1778C26.7865 46.9031 28.5356 47.6327 29.5847 49.2126C30.6339 50.7925 30.5007 53.582 28.4898 54.9076C27.1493 55.7914 24.7767 57.2049 21.372 59.1483C21.535 59.5299 21.9665 60.3957 22.6665 61.7457C23.7165 63.7706 24.3881 66.481 19.93 69.0819C16.958 70.8159 14.3844 72.2918 12.2093 73.5096" stroke="#7AA4C9" stroke-linecap="round" stroke-linejoin="round"/>
<path d="M21.2402 39.4737C15.686 42.2535 11.5624 44.4271 8.86913 45.9945C4.82929 48.3455 4 52.4756 4 55.4003C4 57.3502 4 64.5397 4 76.9688" stroke="#7AA4C9" stroke-linecap="round" stroke-linejoin="round"/>
<path d="M22.8859 80.1345L12.9474 85.9155" stroke="#7AA4C9" stroke-linecap="round" stroke-linejoin="round"/>
<path d="M44.9239 31.6456L34.1934 20.915" stroke="#7AA4C9" stroke-linecap="round" stroke-linejoin="round"/>
<path d="M44.8143 56.5109L33.6914 67.6338" stroke="#7AA4C9" stroke-linecap="round" stroke-linejoin="round"/>
<path d="M32 22C33.6569 22 35 20.6569 35 19C35 17.3431 33.6569 16 32 16C30.3431 16 29 17.3431 29 19C29 20.6569 30.3431 22 32 22Z" stroke="#7AA4C9" stroke-linecap="round" stroke-linejoin="round"/>
<path d="M32 73C33.6569 73 35 71.6569 35 70C35 68.3431 33.6569 67 32 67C30.3431 67 29 68.3431 29 70C29 71.6569 30.3431 73 32 73Z" stroke="#7AA4C9" stroke-linecap="round" stroke-linejoin="round"/>
<path d="M70.2022 31.1424L75.5108 25.8339H82.8829" stroke="#7AA4C9" stroke-linecap="round" stroke-linejoin="round"/>
<path d="M70.2892 56.9761L75.5108 62.1977H82.9044" stroke="#7AA4C9" stroke-linecap="round" stroke-linejoin="round"/>
<path d="M75.5868 43.8914H86.6304" stroke="#7AA4C9" stroke-linecap="round" stroke-linejoin="round"/>
<path d="M86.25 26C86.25 24.7574 85.2426 23.75 84 23.75C82.7574 23.75 81.75 24.7574 81.75 26C81.75 27.2426 82.7574 28.25 84 28.25C85.2426 28.25 86.25 27.2426 86.25 26Z" fill="#7AA4C9" stroke="white" stroke-width="1.5"/>
<path d="M87 26C87 24.3431 85.6569 23 84 23C82.3431 23 81 24.3431 81 26C81 27.6569 82.3431 29 84 29C85.6569 29 87 27.6569 87 26Z" stroke="white"/>
<path d="M89.25 44C89.25 42.7574 88.2426 41.75 87 41.75C85.7574 41.75 84.75 42.7574 84.75 44C84.75 45.2426 85.7574 46.25 87 46.25C88.2426 46.25 89.25 45.2426 89.25 44Z" fill="#7AA4C9" stroke="white" stroke-width="1.5"/>
<path d="M90 44C90 42.3431 88.6569 41 87 41C85.3431 41 84 42.3431 84 44C84 45.6569 85.3431 47 87 47C88.6569 47 90 45.6569 90 44Z" stroke="white"/>
<path d="M86.25 62C86.25 60.7574 85.2426 59.75 84 59.75C82.7574 59.75 81.75 60.7574 81.75 62C81.75 63.2426 82.7574 64.25 84 64.25C85.2426 64.25 86.25 63.2426 86.25 62Z" fill="#7AA4C9" stroke="white" stroke-width="1.5"/>
<path d="M87 62C87 60.3431 85.6569 59 84 59C82.3431 59 81 60.3431 81 62C81 63.6569 82.3431 65 84 65C85.6569 65 87 63.6569 87 62Z" stroke="white"/>
<path d="M60.25 32C60.25 30.7574 59.2426 29.75 58 29.75C56.7574 29.75 55.75 30.7574 55.75 32C55.75 33.2426 56.7574 34.25 58 34.25C59.2426 34.25 60.25 33.2426 60.25 32Z" fill="#7AA4C9" stroke="white" stroke-width="1.5"/>
<path d="M61 32C61 30.3431 59.6569 29 58 29C56.3431 29 55 30.3431 55 32C55 33.6569 56.3431 35 58 35C59.6569 35 61 33.6569 61 32Z" stroke="white"/>
<path d="M60.25 56C60.25 54.7574 59.2426 53.75 58 53.75C56.7574 53.75 55.75 54.7574 55.75 56C55.75 57.2426 56.7574 58.25 58 58.25C59.2426 58.25 60.25 57.2426 60.25 56Z" fill="#7AA4C9" stroke="white" stroke-width="1.5"/>
<path d="M61 56C61 54.3431 59.6569 53 58 53C56.3431 53 55 54.3431 55 56C55 57.6569 56.3431 59 58 59C59.6569 59 61 57.6569 61 56Z" stroke="white"/>
<path d="M14.25 86C14.25 84.7574 13.2426 83.75 12 83.75C10.7574 83.75 9.75 84.7574 9.75 86C9.75 87.2426 10.7574 88.25 12 88.25C13.2426 88.25 14.25 87.2426 14.25 86Z" fill="#7AA4C9" stroke="white" stroke-width="1.5"/>
<path d="M15 86C15 84.3431 13.6569 83 12 83C10.3431 83 9 84.3431 9 86C9 87.6569 10.3431 89 12 89C13.6569 89 15 87.6569 15 86Z" stroke="white"/>
<path d="M6.25 76C6.25 74.7574 5.24264 73.75 4 73.75C2.75736 73.75 1.75 74.7574 1.75 76C1.75 77.2426 2.75736 78.25 4 78.25C5.24264 78.25 6.25 77.2426 6.25 76Z" fill="#7AA4C9" stroke="white" stroke-width="1.5"/>
<path d="M7 76C7 74.3431 5.65685 73 4 73C2.34315 73 1 74.3431 1 76C1 77.6569 2.34315 79 4 79C5.65685 79 7 77.6569 7 76Z" stroke="white"/>
</g>
<defs>
<clipPath id="clip0_36_164">
<rect width="91" height="90" fill="white"/>
</clipPath>
</defs>
</svg>
