<svg width="20" height="20" viewBox="0 0 20 20" fill="none" xmlns="http://www.w3.org/2000/svg">
<path opacity="0.2" d="M9.7521 0.75C8.17154 0.749802 6.61879 1.16585 5.25007 1.9563C3.88135 2.74674 2.74493 3.8837 1.95514 5.25279C1.16534 6.62189 0.750029 8.17484 0.750978 9.7554C0.751927 11.336 1.1691 12.8884 1.96054 14.2566L0.791478 17.7619C0.747408 17.894 0.741013 18.0358 0.773008 18.1714C0.805004 18.307 0.874126 18.431 0.972627 18.5295C1.07113 18.628 1.19512 18.6971 1.33069 18.7291C1.46627 18.7611 1.60808 18.7547 1.74023 18.7106L5.24554 17.5416C6.44079 18.2326 7.77901 18.6394 9.15663 18.7304C10.5343 18.8215 11.9144 18.5943 13.1902 18.0666C14.466 17.5389 15.6033 16.7248 16.514 15.6872C17.4248 14.6496 18.0847 13.4163 18.4425 12.0829C18.8004 10.7494 18.8467 9.35154 18.5779 7.99734C18.309 6.64314 17.7322 5.36895 16.892 4.27336C16.0519 3.17777 14.971 2.29016 13.7329 1.67919C12.4948 1.06823 11.1327 0.750299 9.7521 0.75ZM12.0021 15C10.013 15 8.10533 14.2098 6.6988 12.8033C5.29228 11.3968 4.5021 9.48912 4.5021 7.5C4.5021 6.70435 4.81817 5.94129 5.38078 5.37868C5.94339 4.81607 6.70645 4.5 7.5021 4.5L9.0021 7.5L7.8471 9.23156C8.30535 10.3263 9.17584 11.1968 10.2705 11.655L12.0021 10.5L15.0021 12C15.0021 12.7956 14.686 13.5587 14.1234 14.1213C13.5608 14.6839 12.7978 15 12.0021 15Z" fill="white"/>
<path d="M15.3378 11.3287L12.3378 9.82875C12.2197 9.7699 12.0881 9.74325 11.9565 9.75148C11.8248 9.75971 11.6976 9.80253 11.5878 9.87562L10.2106 10.7944C9.57836 10.4468 9.05811 9.92658 8.71057 9.29437L9.62932 7.91719C9.70241 7.80734 9.74523 7.68016 9.75346 7.54848C9.76169 7.4168 9.73504 7.28528 9.67619 7.16719L8.17619 4.16719C8.11402 4.04163 8.01792 3.936 7.89878 3.86226C7.77964 3.78853 7.64224 3.74964 7.50213 3.75C6.50757 3.75 5.55374 4.14509 4.85048 4.84835C4.14722 5.55161 3.75213 6.50544 3.75213 7.5C3.75461 9.68727 4.6246 11.7843 6.17124 13.3309C7.71787 14.8775 9.81485 15.7475 12.0021 15.75C12.4946 15.75 12.9822 15.653 13.4372 15.4645C13.8922 15.2761 14.3056 14.9999 14.6538 14.6517C15.002 14.3034 15.2782 13.89 15.4667 13.4351C15.6551 12.9801 15.7521 12.4925 15.7521 12C15.7522 11.8607 15.7135 11.7241 15.6403 11.6055C15.5671 11.4869 15.4624 11.3911 15.3378 11.3287ZM12.0021 14.25C10.2125 14.248 8.49679 13.5362 7.23135 12.2708C5.96591 11.0053 5.25411 9.2896 5.25213 7.5C5.25198 6.9798 5.43209 6.47562 5.76181 6.07326C6.09153 5.6709 6.55048 5.39521 7.06057 5.29313L8.13682 7.44937L7.22088 8.8125C7.15243 8.91517 7.11038 9.03314 7.09844 9.15596C7.0865 9.27877 7.10505 9.40263 7.15244 9.51656C7.68905 10.7919 8.70364 11.8065 9.979 12.3431C10.0933 12.3926 10.2181 12.4129 10.3421 12.4021C10.4662 12.3913 10.5856 12.3498 10.6896 12.2812L12.0603 11.3681L14.2165 12.4444C14.1136 12.9552 13.8366 13.4145 13.4327 13.7438C13.0289 14.0731 12.5232 14.252 12.0021 14.25ZM9.75213 2.32196e-07C8.06882 -0.000367089 6.41408 0.435083 4.94899 1.26396C3.4839 2.09285 2.25836 3.28692 1.39166 4.72997C0.524969 6.17301 0.0466421 7.81587 0.00324182 9.49862C-0.0401585 11.1814 0.352846 12.8467 1.144 14.3325L0.0799407 17.5247C-0.00819875 17.789 -0.0209899 18.0726 0.0430011 18.3438C0.106992 18.6149 0.245236 18.8629 0.442239 19.0599C0.639241 19.2569 0.887217 19.3951 1.15837 19.4591C1.42953 19.5231 1.71315 19.5103 1.97744 19.4222L5.16963 18.3581C6.47722 19.0536 7.92608 19.4421 9.40622 19.494C10.8864 19.5459 12.3589 19.26 13.712 18.6579C15.0651 18.0557 16.2633 17.1533 17.2156 16.019C18.1678 14.8846 18.8492 13.5483 19.2079 12.1113C19.5666 10.6744 19.5932 9.17456 19.2857 7.72578C18.9782 6.277 18.3447 4.91731 17.4333 3.74992C16.5219 2.58253 15.3565 1.63811 14.0255 0.988364C12.6946 0.338614 11.2332 0.000607716 9.75213 2.32196e-07ZM9.75213 18C8.30179 18.001 6.87691 17.6191 5.6215 16.8928C5.52959 16.8395 5.42739 16.8063 5.32169 16.7955C5.21599 16.7847 5.10919 16.7964 5.00838 16.83L1.50213 18L2.67119 14.4938C2.70489 14.393 2.7168 14.2862 2.70613 14.1805C2.69547 14.0748 2.66247 13.9726 2.60932 13.8806C1.69991 12.3084 1.33479 10.4799 1.57059 8.67896C1.80639 6.87801 2.62993 5.2052 3.91346 3.92006C5.19699 2.63491 6.86875 1.80925 8.6694 1.57118C10.4701 1.3331 12.299 1.69591 13.8724 2.60333C15.4458 3.51074 16.6758 4.91204 17.3715 6.58983C18.0673 8.26762 18.1899 10.1281 17.7203 11.8827C17.2508 13.6373 16.2154 15.1879 14.7746 16.2939C13.3339 17.4 11.5685 17.9997 9.75213 18Z" fill="white"/>
</svg>
